<svg width="1100" height="260" viewBox="0 0 1100 260" fill="none" xmlns="http://www.w3.org/2000/svg">
  <rect width="1100" height="260" rx="40" fill="#102B50"/>
  <circle cx="118" cy="130" r="73" fill="url(#paint0_linear)"/>
  <circle cx="118" cy="130" r="50" fill="#102B50"/>
  <path d="M129.994 173.557C122.489 176.696 114.233 178.266 105.225 178.266C94.2547 178.266 84.4293 175.441 75.749 169.791C67.121 164.089 61.2351 156.194 58.0913 146.108H41V136.69H56.4393C56.2299 135.12 56.1252 132.897 56.1252 130.021C56.1252 127.353 56.2299 125.235 56.4393 123.665H41V114.248H58.0913C61.2351 104.161 67.121 96.2934 75.749 90.644C84.4293 84.9422 94.2547 82.0913 105.225 82.0913C114.233 82.0913 122.489 83.6611 129.994 86.8007L120.262 104.161C115.189 102.068 109.826 101.021 104.171 101.021C98.4112 101.021 93.1035 102.513 88.248 105.496C83.4448 108.426 79.8823 111.343 77.5604 114.248H113.117V123.665H73.6351C73.4257 125.235 73.321 127.353 73.321 130.021C73.321 132.897 73.4257 135.12 73.6351 136.69H108.251V146.108H77.5604C79.9346 149.143 83.5234 152.126 88.3265 155.057C93.1297 157.987 98.4112 159.452 104.171 159.452C109.774 159.452 115.137 158.406 120.262 156.312L129.994 173.557Z" fill="white"/>
  <text x="220" y="160" fill="white" font-size="88" font-weight="700" font-family="Arial, Helvetica, sans-serif">BonusConti</text>
  <text x="738" y="160" fill="#74C947" font-size="88" font-weight="700" font-family="Arial, Helvetica, sans-serif">Italia</text>
  <defs>
    <linearGradient id="paint0_linear" x1="45" y1="57" x2="191" y2="203" gradientUnits="userSpaceOnUse">
      <stop stop-color="#00A3FF"/>
      <stop offset="0.5" stop-color="#1A85E0"/>
      <stop offset="1" stop-color="#4FCB4B"/>
    </linearGradient>
  </defs>
</svg>
