<svg width="1100" height="260" viewBox="0 0 1100 260" fill="none" xmlns="http://www.w3.org/2000/svg">
  <rect width="1100" height="260" rx="40" fill="#102B50"/>
  <circle cx="162" cy="130" r="73" fill="url(#paint0_linear)"/>
  <circle cx="162" cy="130" r="50" fill="#102B50"/>
  <path d="M173.994 173.557C166.489 176.696 158.233 178.266 149.225 178.266C138.255 178.266 128.429 175.441 119.749 169.791C111.121 164.089 105.235 156.194 102.091 146.108H85V136.69H100.439C100.23 135.12 100.125 132.897 100.125 130.021C100.125 127.353 100.23 125.235 100.439 123.665H85V114.248H102.091C105.235 104.161 111.121 96.2934 119.749 90.644C128.429 84.9422 138.255 82.0913 149.225 82.0913C158.233 82.0913 166.489 83.6611 173.994 86.8007L164.262 104.161C159.189 102.068 153.826 101.021 148.171 101.021C142.411 101.021 137.103 102.513 132.248 105.496C127.445 108.426 123.882 111.343 121.56 114.248H157.117V123.665H117.635C117.426 125.235 117.321 127.353 117.321 130.021C117.321 132.897 117.426 135.12 117.635 136.69H152.251V146.108H121.56C123.935 149.143 127.523 152.126 132.327 155.057C137.13 157.987 142.411 159.452 148.171 159.452C153.774 159.452 159.137 158.406 164.262 156.312L173.994 173.557Z" fill="white"/>
  <text x="262" y="160" fill="white" font-size="88" font-weight="700" font-family="Arial, Helvetica, sans-serif">BonusConti</text>
  <text x="780" y="160" fill="#74C947" font-size="88" font-weight="700" font-family="Arial, Helvetica, sans-serif">Italia</text>
  <defs>
    <linearGradient id="paint0_linear" x1="45" y1="57" x2="191" y2="203" gradientUnits="userSpaceOnUse">
      <stop stop-color="#00A3FF"/>
      <stop offset="0.5" stop-color="#1A85E0"/>
      <stop offset="1" stop-color="#4FCB4B"/>
    </linearGradient>
  </defs>
</svg>
