<svg width="64" height="64" viewBox="0 0 64 64" fill="none" xmlns="http://www.w3.org/2000/svg">
  <rect width="64" height="64" rx="16" fill="#102B50"/>
  <circle cx="32" cy="32" r="20" fill="url(#paint0_linear)"/>
  <circle cx="32" cy="32" r="14" fill="#102B50"/>
  <path d="M35.2852 44.1522C33.2398 45.0075 30.989 45.4352 28.5328 45.4352C25.5415 45.4352 22.8612 44.6686 20.4917 43.1354C18.1363 41.5882 16.5303 39.4455 15.6738 36.7072H11V34.1504H15.2232C15.1661 33.7241 15.1376 33.1206 15.1376 32.34C15.1376 31.6156 15.1661 31.0405 15.2232 30.6142H11V28.0574H15.6738C16.5303 25.3192 18.1363 23.184 20.4917 21.651C22.8612 20.1035 25.5415 19.3298 28.5328 19.3298C30.989 19.3298 33.2398 19.7574 35.2852 20.6127L32.6313 25.3192C31.2472 24.7475 29.7837 24.4617 28.2406 24.4617C26.6689 24.4617 25.2196 24.8686 23.8926 25.6824C22.5797 26.4821 21.6055 27.277 20.9701 28.0574H30.6839V30.6142H19.8982C19.8411 31.0405 19.8126 31.6156 19.8126 32.34C19.8126 33.1206 19.8411 33.7241 19.8982 34.1504H29.3548V36.7072H20.9701C21.6198 37.5302 22.6082 38.3392 23.9354 39.1341C25.2625 39.9289 26.6975 40.3263 28.2406 40.3263C29.7694 40.3263 31.2328 40.0405 32.6313 39.4689L35.2852 44.1522Z" fill="white"/>
  <defs>
    <linearGradient id="paint0_linear" x1="12" y1="12" x2="52" y2="52" gradientUnits="userSpaceOnUse">
      <stop stop-color="#00A3FF"/>
      <stop offset="0.5" stop-color="#1A85E0"/>
      <stop offset="1" stop-color="#4FCB4B"/>
    </linearGradient>
  </defs>
</svg>
