<svg width="560" height="360" viewBox="0 0 560 360" fill="none" xmlns="http://www.w3.org/2000/svg">
  <rect width="560" height="360" rx="36" fill="#112D52"/>
  <circle cx="118" cy="80" r="30" fill="#1F8FFF"/>
  <circle cx="448" cy="90" r="22" fill="#66D148"/>
  <circle cx="470" cy="262" r="38" fill="#00B4C8"/>
  <rect x="118" y="124" width="324" height="140" rx="30" fill="#F8FBFE"/>
  <path d="M158 160C158 142.327 172.327 128 190 128H278C295.673 128 310 142.327 310 160V228C310 245.673 295.673 260 278 260H190C172.327 260 158 245.673 158 228V160Z" fill="#1F8FFF"/>
  <circle cx="234" cy="194" r="42" fill="#FFFFFF"/>
  <path d="M246.685 228.64C240.815 231.095 234.36 232.322 227.32 232.322C218.752 232.322 211.077 230.116 204.296 225.706C197.556 221.255 192.958 215.09 190.5 207.21H177.142V199.854H189.209C189.045 198.627 188.963 196.89 188.963 194.642C188.963 192.558 189.045 190.905 189.209 189.678H177.142V182.321H190.5C192.958 174.441 197.556 168.297 204.296 163.887C211.077 159.436 218.752 157.21 227.32 157.21C234.36 157.21 240.815 158.437 246.685 160.892L239.073 174.441C235.106 172.804 230.911 171.986 226.488 171.986C221.984 171.986 217.834 173.153 214.036 175.484C210.279 177.774 207.493 180.054 205.676 182.321H233.485V189.678H202.608C202.444 190.905 202.362 192.558 202.362 194.642C202.362 196.89 202.444 198.627 202.608 199.854H229.679V207.21H205.676C207.533 209.581 210.34 211.911 214.098 214.201C217.855 216.491 221.984 217.636 226.488 217.636C230.87 217.636 235.065 216.818 239.073 215.181L246.685 228.64Z" fill="#1F8FFF"/>
  <path d="M346 163C346 145.327 360.327 131 378 131H407C424.673 131 439 145.327 439 163V227C439 244.673 424.673 259 407 259H378C360.327 259 346 244.673 346 227V163Z" fill="#66D148"/>
  <path d="M361 195L383 217L423 175" stroke="white" stroke-width="12" stroke-linecap="round" stroke-linejoin="round"/>
</svg>
