<svg width="24" height="24" viewBox="0 0 24 24" fill="none" xmlns="http://www.w3.org/2000/svg">
  <circle cx="12" cy="12" r="12" fill="#25D366"/>
  <path d="M17.782 6.214C16.244 4.678 14.195 3.832 12.01 3.832C7.505 3.832 3.84 7.495 3.84 12C3.84 13.44 4.216 14.848 4.931 16.092L3.75 20.25L8.01 19.132C9.189 19.776 10.517 20.114 11.994 20.114H11.997C16.5 20.114 20.165 16.45 20.165 11.946C20.165 9.761 19.319 7.75 17.782 6.214ZM11.997 18.734H11.994C10.775 18.734 9.58 18.407 8.537 17.79L8.293 17.645L5.765 18.309L6.44 15.843L6.281 15.59C5.613 14.526 5.261 13.297 5.262 12.001C5.262 8.258 8.267 5.254 12.011 5.254C13.823 5.254 15.525 5.959 16.803 7.238C18.079 8.514 18.784 10.201 18.783 11.946C18.783 15.688 15.739 18.734 11.997 18.734ZM15.72 13.652C15.516 13.55 14.505 13.053 14.319 12.987C14.133 12.919 13.998 12.885 13.862 13.089C13.727 13.292 13.337 13.754 13.218 13.89C13.1 14.025 12.981 14.042 12.777 13.94C12.573 13.839 11.915 13.623 11.136 12.929C10.531 12.388 10.124 11.721 10.005 11.518C9.887 11.315 9.992 11.205 10.093 11.105C10.186 11.012 10.298 10.86 10.399 10.742C10.501 10.624 10.535 10.54 10.603 10.404C10.67 10.269 10.637 10.151 10.586 10.049C10.535 9.948 10.127 8.935 9.958 8.529C9.793 8.132 9.625 8.187 9.501 8.181L9.109 8.174C8.973 8.174 8.753 8.225 8.568 8.428C8.382 8.632 7.861 9.129 7.861 10.14C7.861 11.151 8.585 12.129 8.686 12.264C8.788 12.399 10.122 14.456 12.159 15.335C12.643 15.543 13.022 15.666 13.318 15.759C13.804 15.913 14.247 15.891 14.597 15.839C14.988 15.781 15.804 15.342 15.972 14.869C16.141 14.395 16.141 13.991 16.091 13.907C16.04 13.822 15.922 13.771 15.72 13.652Z" fill="white"/>
</svg>
